<mxfile host="app.diagrams.net" modified="2023-06-15T21:21:44.512Z" agent="Mozilla/5.0 (Windows NT 10.0; Win64; x64) AppleWebKit/537.36 (KHTML, like Gecko) Chrome/114.0.0.0 Safari/537.36" etag="yBQfOt2Hbm0bCFsf-3g1" version="21.4.0" type="device">
  <diagram id="C5RBs43oDa-KdzZeNtuy" name="Page-1">
    <mxGraphModel dx="1354" dy="636" grid="0" gridSize="10" guides="1" tooltips="1" connect="1" arrows="1" fold="1" page="0" pageScale="1" pageWidth="827" pageHeight="1169" math="0" shadow="0">
      <root>
        <mxCell id="WIyWlLk6GJQsqaUBKTNV-0" />
        <mxCell id="WIyWlLk6GJQsqaUBKTNV-1" parent="WIyWlLk6GJQsqaUBKTNV-0" />
        <mxCell id="8UXbq9bmPcRdWU7f7Jia-2" value="" style="edgeStyle=orthogonalEdgeStyle;rounded=0;orthogonalLoop=1;jettySize=auto;html=1;" edge="1" parent="WIyWlLk6GJQsqaUBKTNV-1" source="8UXbq9bmPcRdWU7f7Jia-0" target="8UXbq9bmPcRdWU7f7Jia-1">
          <mxGeometry relative="1" as="geometry" />
        </mxCell>
        <mxCell id="8UXbq9bmPcRdWU7f7Jia-0" value="START" style="rounded=0;whiteSpace=wrap;html=1;" vertex="1" parent="WIyWlLk6GJQsqaUBKTNV-1">
          <mxGeometry x="172" y="100" width="120" height="60" as="geometry" />
        </mxCell>
        <mxCell id="8UXbq9bmPcRdWU7f7Jia-31" value="" style="edgeStyle=orthogonalEdgeStyle;rounded=0;orthogonalLoop=1;jettySize=auto;html=1;" edge="1" parent="WIyWlLk6GJQsqaUBKTNV-1" source="8UXbq9bmPcRdWU7f7Jia-1" target="8UXbq9bmPcRdWU7f7Jia-30">
          <mxGeometry relative="1" as="geometry" />
        </mxCell>
        <mxCell id="8UXbq9bmPcRdWU7f7Jia-1" value="CALL SUBROUTINE &quot;EBI_INIT&quot;" style="shape=process;whiteSpace=wrap;html=1;backgroundOutline=1;rounded=0;" vertex="1" parent="WIyWlLk6GJQsqaUBKTNV-1">
          <mxGeometry x="172" y="184" width="120" height="60" as="geometry" />
        </mxCell>
        <mxCell id="8UXbq9bmPcRdWU7f7Jia-5" value="" style="edgeStyle=orthogonalEdgeStyle;rounded=0;orthogonalLoop=1;jettySize=auto;html=1;" edge="1" parent="WIyWlLk6GJQsqaUBKTNV-1" source="8UXbq9bmPcRdWU7f7Jia-3" target="8UXbq9bmPcRdWU7f7Jia-4">
          <mxGeometry relative="1" as="geometry" />
        </mxCell>
        <mxCell id="8UXbq9bmPcRdWU7f7Jia-3" value="&amp;nbsp;SUBROUTINE &quot;EBI_INIT&quot;" style="shape=process;whiteSpace=wrap;html=1;backgroundOutline=1;rounded=0;" vertex="1" parent="WIyWlLk6GJQsqaUBKTNV-1">
          <mxGeometry x="336" y="100" width="120" height="60" as="geometry" />
        </mxCell>
        <mxCell id="8UXbq9bmPcRdWU7f7Jia-7" value="" style="edgeStyle=orthogonalEdgeStyle;rounded=0;orthogonalLoop=1;jettySize=auto;html=1;" edge="1" parent="WIyWlLk6GJQsqaUBKTNV-1" source="8UXbq9bmPcRdWU7f7Jia-4" target="8UXbq9bmPcRdWU7f7Jia-6">
          <mxGeometry relative="1" as="geometry" />
        </mxCell>
        <mxCell id="8UXbq9bmPcRdWU7f7Jia-4" value="INITIALIZE EBI CONTROL SIGNALS" style="whiteSpace=wrap;html=1;rounded=0;" vertex="1" parent="WIyWlLk6GJQsqaUBKTNV-1">
          <mxGeometry x="336" y="184" width="120" height="60" as="geometry" />
        </mxCell>
        <mxCell id="8UXbq9bmPcRdWU7f7Jia-9" value="" style="edgeStyle=orthogonalEdgeStyle;rounded=0;orthogonalLoop=1;jettySize=auto;html=1;" edge="1" parent="WIyWlLk6GJQsqaUBKTNV-1" source="8UXbq9bmPcRdWU7f7Jia-6" target="8UXbq9bmPcRdWU7f7Jia-8">
          <mxGeometry relative="1" as="geometry" />
        </mxCell>
        <mxCell id="8UXbq9bmPcRdWU7f7Jia-6" value="SET EBI CONTROL SIGNALS TO OUTPUT" style="whiteSpace=wrap;html=1;rounded=0;" vertex="1" parent="WIyWlLk6GJQsqaUBKTNV-1">
          <mxGeometry x="336" y="272" width="120" height="60" as="geometry" />
        </mxCell>
        <mxCell id="8UXbq9bmPcRdWU7f7Jia-11" value="" style="edgeStyle=orthogonalEdgeStyle;rounded=0;orthogonalLoop=1;jettySize=auto;html=1;" edge="1" parent="WIyWlLk6GJQsqaUBKTNV-1" source="8UXbq9bmPcRdWU7f7Jia-8" target="8UXbq9bmPcRdWU7f7Jia-10">
          <mxGeometry relative="1" as="geometry" />
        </mxCell>
        <mxCell id="8UXbq9bmPcRdWU7f7Jia-8" value="SET ADDRESS SIGNALS TO OUTPUT" style="whiteSpace=wrap;html=1;rounded=0;" vertex="1" parent="WIyWlLk6GJQsqaUBKTNV-1">
          <mxGeometry x="336" y="357" width="120" height="60" as="geometry" />
        </mxCell>
        <mxCell id="8UXbq9bmPcRdWU7f7Jia-13" value="" style="edgeStyle=orthogonalEdgeStyle;rounded=0;orthogonalLoop=1;jettySize=auto;html=1;" edge="1" parent="WIyWlLk6GJQsqaUBKTNV-1" source="8UXbq9bmPcRdWU7f7Jia-10" target="8UXbq9bmPcRdWU7f7Jia-12">
          <mxGeometry relative="1" as="geometry" />
        </mxCell>
        <mxCell id="8UXbq9bmPcRdWU7f7Jia-10" value="SET EBI TYPE TO 3 PORT SRAM ALE1" style="whiteSpace=wrap;html=1;rounded=0;" vertex="1" parent="WIyWlLk6GJQsqaUBKTNV-1">
          <mxGeometry x="336" y="445" width="120" height="60" as="geometry" />
        </mxCell>
        <mxCell id="8UXbq9bmPcRdWU7f7Jia-15" value="" style="edgeStyle=orthogonalEdgeStyle;rounded=0;orthogonalLoop=1;jettySize=auto;html=1;" edge="1" parent="WIyWlLk6GJQsqaUBKTNV-1" source="8UXbq9bmPcRdWU7f7Jia-12" target="8UXbq9bmPcRdWU7f7Jia-14">
          <mxGeometry relative="1" as="geometry" />
        </mxCell>
        <mxCell id="8UXbq9bmPcRdWU7f7Jia-12" value="CONFIGURE CS0" style="whiteSpace=wrap;html=1;rounded=0;" vertex="1" parent="WIyWlLk6GJQsqaUBKTNV-1">
          <mxGeometry x="336" y="535" width="120" height="60" as="geometry" />
        </mxCell>
        <mxCell id="8UXbq9bmPcRdWU7f7Jia-14" value="CONFIGURE CS2" style="whiteSpace=wrap;html=1;rounded=0;" vertex="1" parent="WIyWlLk6GJQsqaUBKTNV-1">
          <mxGeometry x="336" y="625" width="120" height="60" as="geometry" />
        </mxCell>
        <mxCell id="8UXbq9bmPcRdWU7f7Jia-39" value="" style="edgeStyle=orthogonalEdgeStyle;rounded=0;orthogonalLoop=1;jettySize=auto;html=1;" edge="1" parent="WIyWlLk6GJQsqaUBKTNV-1" source="8UXbq9bmPcRdWU7f7Jia-16" target="8UXbq9bmPcRdWU7f7Jia-38">
          <mxGeometry relative="1" as="geometry" />
        </mxCell>
        <mxCell id="8UXbq9bmPcRdWU7f7Jia-16" value="LOOP" style="whiteSpace=wrap;html=1;rounded=0;" vertex="1" parent="WIyWlLk6GJQsqaUBKTNV-1">
          <mxGeometry x="172" y="357" width="120" height="60" as="geometry" />
        </mxCell>
        <mxCell id="8UXbq9bmPcRdWU7f7Jia-29" style="edgeStyle=orthogonalEdgeStyle;rounded=0;orthogonalLoop=1;jettySize=auto;html=1;exitX=0.5;exitY=1;exitDx=0;exitDy=0;entryX=0.5;entryY=0;entryDx=0;entryDy=0;" edge="1" parent="WIyWlLk6GJQsqaUBKTNV-1" source="8UXbq9bmPcRdWU7f7Jia-25" target="8UXbq9bmPcRdWU7f7Jia-27">
          <mxGeometry relative="1" as="geometry" />
        </mxCell>
        <mxCell id="8UXbq9bmPcRdWU7f7Jia-25" value="&amp;nbsp;SUBROUTINE &quot;EBI_I/O_INIT&quot;" style="shape=process;whiteSpace=wrap;html=1;backgroundOutline=1;rounded=0;" vertex="1" parent="WIyWlLk6GJQsqaUBKTNV-1">
          <mxGeometry x="491" y="100" width="120" height="60" as="geometry" />
        </mxCell>
        <mxCell id="8UXbq9bmPcRdWU7f7Jia-26" style="edgeStyle=orthogonalEdgeStyle;rounded=0;orthogonalLoop=1;jettySize=auto;html=1;exitX=0.5;exitY=1;exitDx=0;exitDy=0;entryX=0.5;entryY=0;entryDx=0;entryDy=0;" edge="1" parent="WIyWlLk6GJQsqaUBKTNV-1" source="8UXbq9bmPcRdWU7f7Jia-27" target="8UXbq9bmPcRdWU7f7Jia-28">
          <mxGeometry relative="1" as="geometry" />
        </mxCell>
        <mxCell id="8UXbq9bmPcRdWU7f7Jia-27" value="ENABLE ALE" style="whiteSpace=wrap;html=1;rounded=0;" vertex="1" parent="WIyWlLk6GJQsqaUBKTNV-1">
          <mxGeometry x="491" y="184" width="120" height="60" as="geometry" />
        </mxCell>
        <mxCell id="8UXbq9bmPcRdWU7f7Jia-33" value="" style="edgeStyle=orthogonalEdgeStyle;rounded=0;orthogonalLoop=1;jettySize=auto;html=1;" edge="1" parent="WIyWlLk6GJQsqaUBKTNV-1" source="8UXbq9bmPcRdWU7f7Jia-28" target="8UXbq9bmPcRdWU7f7Jia-32">
          <mxGeometry relative="1" as="geometry" />
        </mxCell>
        <mxCell id="8UXbq9bmPcRdWU7f7Jia-28" value="SET EBI ADDRESS TO 0X224000" style="whiteSpace=wrap;html=1;rounded=0;" vertex="1" parent="WIyWlLk6GJQsqaUBKTNV-1">
          <mxGeometry x="491" y="269" width="120" height="60" as="geometry" />
        </mxCell>
        <mxCell id="8UXbq9bmPcRdWU7f7Jia-36" style="edgeStyle=orthogonalEdgeStyle;rounded=0;orthogonalLoop=1;jettySize=auto;html=1;exitX=0.5;exitY=1;exitDx=0;exitDy=0;entryX=0.5;entryY=0;entryDx=0;entryDy=0;" edge="1" parent="WIyWlLk6GJQsqaUBKTNV-1" source="8UXbq9bmPcRdWU7f7Jia-30" target="8UXbq9bmPcRdWU7f7Jia-16">
          <mxGeometry relative="1" as="geometry" />
        </mxCell>
        <mxCell id="8UXbq9bmPcRdWU7f7Jia-30" value="CALL SUBROUTINE &quot;EBI_I/O_INIT&quot;" style="shape=process;whiteSpace=wrap;html=1;backgroundOutline=1;rounded=0;" vertex="1" parent="WIyWlLk6GJQsqaUBKTNV-1">
          <mxGeometry x="172" y="272" width="120" height="60" as="geometry" />
        </mxCell>
        <mxCell id="8UXbq9bmPcRdWU7f7Jia-35" value="" style="edgeStyle=orthogonalEdgeStyle;rounded=0;orthogonalLoop=1;jettySize=auto;html=1;" edge="1" parent="WIyWlLk6GJQsqaUBKTNV-1" source="8UXbq9bmPcRdWU7f7Jia-32" target="8UXbq9bmPcRdWU7f7Jia-34">
          <mxGeometry relative="1" as="geometry" />
        </mxCell>
        <mxCell id="8UXbq9bmPcRdWU7f7Jia-32" value="ENABLE WE" style="whiteSpace=wrap;html=1;rounded=0;" vertex="1" parent="WIyWlLk6GJQsqaUBKTNV-1">
          <mxGeometry x="491" y="357" width="120" height="60" as="geometry" />
        </mxCell>
        <mxCell id="8UXbq9bmPcRdWU7f7Jia-34" value="ENABLE RE" style="whiteSpace=wrap;html=1;rounded=0;" vertex="1" parent="WIyWlLk6GJQsqaUBKTNV-1">
          <mxGeometry x="491" y="445" width="120" height="60" as="geometry" />
        </mxCell>
        <mxCell id="8UXbq9bmPcRdWU7f7Jia-40" style="edgeStyle=orthogonalEdgeStyle;rounded=0;orthogonalLoop=1;jettySize=auto;html=1;exitX=0.5;exitY=1;exitDx=0;exitDy=0;entryX=0;entryY=0.5;entryDx=0;entryDy=0;" edge="1" parent="WIyWlLk6GJQsqaUBKTNV-1" source="8UXbq9bmPcRdWU7f7Jia-38" target="8UXbq9bmPcRdWU7f7Jia-16">
          <mxGeometry relative="1" as="geometry" />
        </mxCell>
        <mxCell id="8UXbq9bmPcRdWU7f7Jia-38" value="TOGGLE WE" style="whiteSpace=wrap;html=1;rounded=0;" vertex="1" parent="WIyWlLk6GJQsqaUBKTNV-1">
          <mxGeometry x="172" y="445" width="120" height="60" as="geometry" />
        </mxCell>
      </root>
    </mxGraphModel>
  </diagram>
</mxfile>
